<?xml version="1.0" standalone="no"?><!DOCTYPE svg PUBLIC "-//W3C//DTD SVG 1.1//EN" "http://www.w3.org/Graphics/SVG/1.1/DTD/svg11.dtd"><svg t="1601277721985" class="icon" viewBox="0 0 1024 1024" version="1.1" xmlns="http://www.w3.org/2000/svg" p-id="4909" xmlns:xlink="http://www.w3.org/1999/xlink" width="200" height="200"><defs><style type="text/css"></style></defs><path d="M193.6 323v-97.6c0-21.2 17.2-38.4 38.4-38.4h580c21.2 0 38.4 17.2 38.4 38.4V323c0 22.6 18.4 41 41 41s41-18.4 41-41v-97.6c0-66.5-53.9-120.4-120.4-120.4H232c-66.5 0-120.4 53.9-120.4 120.4V323c0 22.6 18.4 41 41 41s41-18.4 41-41zM152.6 668c-22.6 0-41 18.4-41 41v97.6c0 66.5 53.9 120.4 120.4 120.4h580c66.5 0 120.4-53.9 120.4-120.4V709c0-22.6-18.4-41-41-41s-41 18.4-41 41v97.6c0 21.2-17.2 38.4-38.4 38.4H232c-21.2 0-38.4-17.2-38.4-38.4V709c0-22.6-18.4-41-41-41zM917.9 557H104.3c-22.5 0-41-18.4-41-41 0-22.5 18.4-41 41-41h813.6c22.5 0 41 18.4 41 41 0 22.5-18.4 41-41 41z" p-id="4910" fill="#bfbfbf"></path></svg>