<?xml version="1.0" standalone="no"?><!DOCTYPE svg PUBLIC "-//W3C//DTD SVG 1.1//EN" "http://www.w3.org/Graphics/SVG/1.1/DTD/svg11.dtd"><svg t="1601293387734" class="icon" viewBox="0 0 1024 1024" version="1.1" xmlns="http://www.w3.org/2000/svg" p-id="10583" xmlns:xlink="http://www.w3.org/1999/xlink" width="200" height="200"><defs><style type="text/css"></style></defs><path d="M512 853.3c188.5 0 341.3-152.8 341.3-341.3S700.5 170.7 512 170.7 170.7 323.5 170.7 512v256c0 47.1 38.2 85.3 85.3 85.3h256z m0 85.4H256c-94.3 0-170.7-76.4-170.7-170.7V512c0-235.6 191-426.7 426.7-426.7s426.7 191 426.7 426.7S747.6 938.7 512 938.7z" fill="#bfbfbf" p-id="10584"></path><path d="M336 682.7c-20.7 0-37.4-19.1-37.4-42.7 0-23.5 16.7-42.7 37.4-42.7h138.6c20.7 0 37.4 19.1 37.4 42.7s-16.7 42.7-37.4 42.7H336z m4.7-213.4c-23.2 0-42-19.1-42-42.7 0-23.5 18.8-42.7 42-42.7h342.6c23.2 0 42 19.1 42 42.7 0 23.5-18.8 42.7-42 42.7H340.7z" fill="#bfbfbf" p-id="10585"></path></svg>