<?xml version="1.0" standalone="no"?><!DOCTYPE svg PUBLIC "-//W3C//DTD SVG 1.1//EN" "http://www.w3.org/Graphics/SVG/1.1/DTD/svg11.dtd"><svg t="1601468437218" class="icon" viewBox="0 0 1024 1024" version="1.1" xmlns="http://www.w3.org/2000/svg" p-id="3115" xmlns:xlink="http://www.w3.org/1999/xlink" width="200" height="200"><defs><style type="text/css"></style></defs><path d="M976.5888 275.2l-75.793067-148.548267A104.8064 104.8064 0 0 0 807.424 69.461333H216.576a104.8064 104.8064 0 0 0-93.371733 57.1904l-75.793067 148.548267c-42.069333 96.443733 20.206933 210.414933 125.0816 218.9312a162.9184 162.9184 0 0 0 148.258133-70.843733 33.9968 33.9968 0 0 1 56.3712 0c29.3376 43.093333 78.7968 71.389867 134.877867 71.389866s105.5232-28.296533 134.877867-71.389866a33.9968 33.9968 0 0 1 56.3712 0 162.9184 162.9184 0 0 0 148.258133 70.843733c104.874667-8.516267 167.150933-122.487467 125.0816-218.9312zM866.645333 561.152a235.776 235.776 0 0 1-28.5184 1.774933 231.185067 231.185067 0 0 1-141.5168-48.315733 34.952533 34.952533 0 0 0-43.1104 0A231.253333 231.253333 0 0 1 512 562.926933a231.185067 231.185067 0 0 1-141.5168-48.315733 34.952533 34.952533 0 0 0-43.1104 0 231.253333 231.253333 0 0 1-169.710933 46.574933A33.9456 33.9456 0 0 0 119.466667 594.926933v290.423467c0 38.212267 30.1568 69.188267 67.362133 69.188267h650.359467c37.205333 0 67.362133-30.976 67.362133-69.188267V595.029333c-0.017067-20.360533-17.732267-36.471467-37.905067-33.877333z m-141.636266 257.706667H298.973867c-18.773333 0-34.133333-15.36-34.133334-34.133334s15.36-34.133333 34.133334-34.133333h426.0352c18.773333 0 34.133333 15.36 34.133333 34.133333s-15.36 34.133333-34.133333 34.133334z" fill="#ffc0cb" p-id="3116"></path></svg>